<svg width="11" height="11" viewBox="0 0 11 11" fill="none" xmlns="http://www.w3.org/2000/svg">
<path d="M0.292893 9.29289C-0.0976312 9.68342 -0.0976312 10.3166 0.292893 10.7071C0.683418 11.0976 1.31658 11.0976 1.70711 10.7071L0.292893 9.29289ZM11 0.999999C11 0.447714 10.5523 -1.21715e-06 10 -7.95679e-07L1 -1.00641e-06C0.447715 -1.00641e-06 2.02816e-07 0.447714 2.02816e-07 0.999999C2.02816e-07 1.55228 0.447715 2 1 2L9 2L9 10C9 10.5523 9.44772 11 10 11C10.5523 11 11 10.5523 11 10L11 0.999999ZM1 10L1.70711 10.7071L10.7071 1.70711L10 0.999999L9.29289 0.292892L0.292893 9.29289L1 10Z" fill="#CBD0CC"/>
</svg>
